<mxfile host="app.diagrams.net" modified="2021-11-30T10:23:41.831Z" agent="5.0 (Macintosh; Intel Mac OS X 10_15_7) AppleWebKit/537.36 (KHTML, like Gecko) Chrome/96.0.4664.55 Safari/537.36" etag="QMNbyZzBaOpR7oGBO-it" version="15.8.6" type="github">
  <diagram id="Zl_C0mG7Flhq4nI1xgIY" name="第 1 页">
    <mxGraphModel dx="946" dy="662" grid="0" gridSize="10" guides="1" tooltips="1" connect="1" arrows="1" fold="1" page="1" pageScale="1" pageWidth="827" pageHeight="1169" math="0" shadow="0">
      <root>
        <mxCell id="0" />
        <mxCell id="1" parent="0" />
        <mxCell id="sMWrQJroCDS8XebOZDCz-1" value="" style="rounded=1;whiteSpace=wrap;html=1;" vertex="1" parent="1">
          <mxGeometry x="30" y="89" width="749" height="469" as="geometry" />
        </mxCell>
        <mxCell id="c9XTGMT6V7COeygtAoj6-2" value="管理员(manager)" style="swimlane;childLayout=stackLayout;horizontal=1;startSize=30;horizontalStack=0;rounded=1;fontSize=14;fontStyle=0;strokeWidth=2;resizeParent=0;resizeLast=1;shadow=0;dashed=0;align=center;" parent="1" vertex="1">
          <mxGeometry x="95" y="220" width="188" height="175" as="geometry" />
        </mxCell>
        <mxCell id="c9XTGMT6V7COeygtAoj6-3" value="+ id&#xa;+ name&#xa;+ phone&#xa;+ password&#xa;+ deleted&#xa;+ created_by&#xa;+ updated_by&#xa;+ create_time&#xa;+ update_time" style="align=left;strokeColor=none;fillColor=none;spacingLeft=4;fontSize=12;verticalAlign=top;resizable=0;rotatable=0;part=1;" parent="c9XTGMT6V7COeygtAoj6-2" vertex="1">
          <mxGeometry y="30" width="188" height="145" as="geometry" />
        </mxCell>
        <mxCell id="c9XTGMT6V7COeygtAoj6-4" value="运营商" style="swimlane;childLayout=stackLayout;horizontal=1;startSize=30;horizontalStack=0;rounded=1;fontSize=14;fontStyle=0;strokeWidth=2;resizeParent=0;resizeLast=1;shadow=0;dashed=0;align=center;" parent="1" vertex="1">
          <mxGeometry x="545" y="220" width="160" height="120" as="geometry" />
        </mxCell>
        <mxCell id="c9XTGMT6V7COeygtAoj6-5" value="+Attribute1&#xa;+Attribute2&#xa;+Attribute3" style="align=left;strokeColor=none;fillColor=none;spacingLeft=4;fontSize=12;verticalAlign=top;resizable=0;rotatable=0;part=1;" parent="c9XTGMT6V7COeygtAoj6-4" vertex="1">
          <mxGeometry y="30" width="160" height="90" as="geometry" />
        </mxCell>
        <mxCell id="c9XTGMT6V7COeygtAoj6-6" value="用户" style="swimlane;childLayout=stackLayout;horizontal=1;startSize=30;horizontalStack=0;rounded=1;fontSize=14;fontStyle=0;strokeWidth=2;resizeParent=0;resizeLast=1;shadow=0;dashed=0;align=center;" parent="1" vertex="1">
          <mxGeometry x="331" y="375" width="160" height="120" as="geometry">
            <mxRectangle x="334" y="69" width="55" height="30" as="alternateBounds" />
          </mxGeometry>
        </mxCell>
        <mxCell id="c9XTGMT6V7COeygtAoj6-7" value="+Attribute1&#xa;+Attribute2&#xa;+Attribute3" style="align=left;strokeColor=none;fillColor=none;spacingLeft=4;fontSize=12;verticalAlign=top;resizable=0;rotatable=0;part=1;" parent="c9XTGMT6V7COeygtAoj6-6" vertex="1">
          <mxGeometry y="30" width="160" height="90" as="geometry" />
        </mxCell>
        <mxCell id="sMWrQJroCDS8XebOZDCz-2" value="&lt;h1&gt;pivot&lt;/h1&gt;" style="text;html=1;strokeColor=none;fillColor=none;align=center;verticalAlign=middle;whiteSpace=wrap;rounded=0;" vertex="1" parent="1">
          <mxGeometry x="363" y="98" width="60" height="30" as="geometry" />
        </mxCell>
      </root>
    </mxGraphModel>
  </diagram>
</mxfile>
